<?xml version="1.0" standalone="no"?>
<!DOCTYPE svg PUBLIC "-//W3C//DTD SVG 20010904//EN"
 "http://www.w3.org/TR/2001/REC-SVG-20010904/DTD/svg10.dtd">
<svg version="1.0" xmlns="http://www.w3.org/2000/svg"
 width="96.000000pt" height="96.000000pt" viewBox="0 0 96.000000 96.000000"
 preserveAspectRatio="xMidYMid meet">
<metadata>
Created by potrace 1.11, written by Peter Selinger 2001-2013
</metadata>
<g transform="translate(0.000000,96.000000) scale(0.100000,-0.100000)"
fill="#000000" stroke="none">
<path d="M418 915 c-2 -1 -25 -5 -53 -8 -86 -9 -178 -59 -249 -135 -128 -135
-149 -352 -51 -517 99 -167 324 -250 505 -187 54 19 55 19 71 -2 16 -19 17
-19 44 25 63 102 47 99 125 19 38 -38 74 -70 79 -70 6 0 22 12 36 27 l25 28
-72 72 c-40 40 -69 76 -64 80 4 4 30 22 58 38 29 17 53 35 55 41 2 6 -14 19
-36 29 -22 10 -38 22 -34 28 13 21 15 122 3 181 -30 152 -145 281 -295 329
-45 15 -139 29 -147 22z"/>
</g>
</svg>
